{
	"asset":{
		"generator":"Khronos glTF Blender I/O v3.5.30",
		"version":"2.0"
	},
	"extensionsUsed":[
		"KHR_materials_specular",
		"KHR_materials_ior",
		"KHR_materials_emissive_strength"
	],
	"scene":0,
	"scenes":[
		{
			"name":"Scene",
			"nodes":[
				0,
				1
			]
		}
	],
	"nodes":[
		{
			"mesh":0,
			"name":"LaptopBase",
			"translation":[
				0,
				0.009783606976270676,
				0
			]
		},
		{
			"mesh":1,
			"name":"LaptopMontor",
			"rotation":[
				0,
				0,
				0.7601513266563416,
				0.6497460603713989
			],
			"translation":[
				-0.2582729458808899,
				0.01626250147819519,
				0
			]
		}
	],
	"animations":[
		{
			"channels":[
				{
					"sampler":0,
					"target":{
						"node":1,
						"path":"rotation"
					}
				},
				{
					"sampler":1,
					"target":{
						"node":1,
						"path":"translation"
					}
				}
			],
			"name":"LaptopMontorAction",
			"samplers":[
				{
					"input":24,
					"interpolation":"LINEAR",
					"output":25
				},
				{
					"input":26,
					"interpolation":"STEP",
					"output":27
				}
			]
		}
	],
	"materials":[
		{
			"doubleSided":true,
			"extensions":{
				"KHR_materials_specular":{
					"specularColorFactor":[
						0.5579664642582282,
						0.5579664642582282,
						0.5579664642582282
					]
				},
				"KHR_materials_ior":{
					"ior":1.4500000476837158
				}
			},
			"name":"LaptopBody",
			"pbrMetallicRoughness":{
				"baseColorFactor":[
					0.004895541816949844,
					0.004895541816949844,
					0.004895541816949844,
					1
				],
				"metallicFactor":0.4313725531101227,
				"roughnessFactor":0.28431373834609985
			}
		},
		{
			"doubleSided":true,
			"extensions":{
				"KHR_materials_specular":{
					"specularColorFactor":[
						0.9066955750915848,
						0.9066955750915848,
						0.9066955750915848
					]
				},
				"KHR_materials_ior":{
					"ior":1.4500000476837158
				}
			},
			"name":"Laptop_TouchPad",
			"pbrMetallicRoughness":{
				"baseColorFactor":[
					0.007193528115749359,
					0.007193528115749359,
					0.007193528115749359,
					1
				],
				"metallicFactor":0.3235294222831726,
				"roughnessFactor":0.29411762952804565
			}
		},
		{
			"doubleSided":true,
			"emissiveFactor":[
				0.006622000131756067,
				1,
				0
			],
			"extensions":{
				"KHR_materials_emissive_strength":{
					"emissiveStrength":2.3164844512939453
				}
			},
			"name":"LaptopLight",
			"pbrMetallicRoughness":{
				"baseColorFactor":[
					0.0023096660152077675,
					0.8000000715255737,
					0,
					1
				],
				"metallicFactor":0,
				"roughnessFactor":0.5
			}
		},
		{
			"doubleSided":true,
			"name":"LaptopButtons",
			"pbrMetallicRoughness":{
				"baseColorFactor":[
					0.018847797065973282,
					0.018847797065973282,
					0.018847797065973282,
					1
				],
				"metallicFactor":0,
				"roughnessFactor":0.3235294222831726
			}
		},
		{
			"doubleSided":true,
			"emissiveFactor":[
				0.05392497405409813,
				0.3837468922138214,
				0.7455167174339294
			],
			"name":"LaptopScreen",
			"pbrMetallicRoughness":{
				"baseColorFactor":[
					0.03153447434306145,
					0.3911980092525482,
					0.8000000715255737,
					1
				],
				"metallicFactor":0,
				"roughnessFactor":0.5
			}
		}
	],
	"meshes":[
		{
			"name":"Cube.001",
			"primitives":[
				{
					"attributes":{
						"POSITION":0,
						"TEXCOORD_0":1,
						"NORMAL":2
					},
					"indices":3,
					"material":0
				},
				{
					"attributes":{
						"POSITION":4,
						"TEXCOORD_0":5,
						"NORMAL":6
					},
					"indices":7,
					"material":1
				},
				{
					"attributes":{
						"POSITION":8,
						"TEXCOORD_0":9,
						"NORMAL":10
					},
					"indices":11,
					"material":2
				},
				{
					"attributes":{
						"POSITION":12,
						"TEXCOORD_0":13,
						"NORMAL":14
					},
					"indices":15,
					"material":3
				}
			]
		},
		{
			"name":"Cube.003",
			"primitives":[
				{
					"attributes":{
						"POSITION":16,
						"TEXCOORD_0":17,
						"NORMAL":18
					},
					"indices":19,
					"material":0
				},
				{
					"attributes":{
						"POSITION":20,
						"TEXCOORD_0":21,
						"NORMAL":22
					},
					"indices":23,
					"material":4
				}
			]
		}
	],
	"accessors":[
		{
			"bufferView":0,
			"componentType":5126,
			"count":5712,
			"max":[
				0.1595197319984436,
				0.01143661979585886,
				0.30279240012168884
			],
			"min":[
				-0.257885605096817,
				-0.008578195236623287,
				-0.30279240012168884
			],
			"type":"VEC3"
		},
		{
			"bufferView":1,
			"componentType":5126,
			"count":5712,
			"type":"VEC2"
		},
		{
			"bufferView":2,
			"componentType":5126,
			"count":5712,
			"type":"VEC3"
		},
		{
			"bufferView":3,
			"componentType":5123,
			"count":12678,
			"type":"SCALAR"
		},
		{
			"bufferView":4,
			"componentType":5126,
			"count":10,
			"max":[
				0.12696456909179688,
				0.008578195236623287,
				0.10220932215452194
			],
			"min":[
				0.05067310109734535,
				0.008578195236623287,
				-0.08455729484558105
			],
			"type":"VEC3"
		},
		{
			"bufferView":5,
			"componentType":5126,
			"count":10,
			"type":"VEC2"
		},
		{
			"bufferView":6,
			"componentType":5126,
			"count":10,
			"type":"VEC3"
		},
		{
			"bufferView":7,
			"componentType":5123,
			"count":24,
			"type":"SCALAR"
		},
		{
			"bufferView":8,
			"componentType":5126,
			"count":4,
			"max":[
				0.1595197319984436,
				0.005135620944201946,
				-0.2866930365562439
			],
			"min":[
				0.1595197319984436,
				0.002842758782207966,
				-0.29536065459251404
			],
			"type":"VEC3"
		},
		{
			"bufferView":9,
			"componentType":5126,
			"count":4,
			"type":"VEC2"
		},
		{
			"bufferView":10,
			"componentType":5126,
			"count":4,
			"type":"VEC3"
		},
		{
			"bufferView":11,
			"componentType":5123,
			"count":6,
			"type":"SCALAR"
		},
		{
			"bufferView":12,
			"componentType":5126,
			"count":280,
			"max":[
				0.027592604979872704,
				0.01143661979585886,
				0.26912999153137207
			],
			"min":[
				-0.21437908709049225,
				0.01143661979585886,
				-0.27685829997062683
			],
			"type":"VEC3"
		},
		{
			"bufferView":13,
			"componentType":5126,
			"count":280,
			"type":"VEC2"
		},
		{
			"bufferView":14,
			"componentType":5126,
			"count":280,
			"type":"VEC3"
		},
		{
			"bufferView":15,
			"componentType":5123,
			"count":420,
			"type":"SCALAR"
		},
		{
			"bufferView":16,
			"componentType":5126,
			"count":236,
			"max":[
				0.4177927076816559,
				0.01533846091479063,
				0.30279240012168884
			],
			"min":[
				0.000387340784072876,
				-0.001817929558455944,
				-0.30279240012168884
			],
			"type":"VEC3"
		},
		{
			"bufferView":17,
			"componentType":5126,
			"count":236,
			"type":"VEC2"
		},
		{
			"bufferView":18,
			"componentType":5126,
			"count":236,
			"type":"VEC3"
		},
		{
			"bufferView":19,
			"componentType":5123,
			"count":366,
			"type":"SCALAR"
		},
		{
			"bufferView":20,
			"componentType":5126,
			"count":4,
			"max":[
				0.40163180232048035,
				0.003811949398368597,
				0.2857443690299988
			],
			"min":[
				0.018322547897696495,
				0.003811949398368597,
				-0.2857443690299988
			],
			"type":"VEC3"
		},
		{
			"bufferView":21,
			"componentType":5126,
			"count":4,
			"type":"VEC2"
		},
		{
			"bufferView":22,
			"componentType":5126,
			"count":4,
			"type":"VEC3"
		},
		{
			"bufferView":23,
			"componentType":5123,
			"count":6,
			"type":"SCALAR"
		},
		{
			"bufferView":24,
			"componentType":5126,
			"count":101,
			"max":[
				4.166666666666667
			],
			"min":[
				0
			],
			"type":"SCALAR"
		},
		{
			"bufferView":25,
			"componentType":5126,
			"count":101,
			"type":"VEC4"
		},
		{
			"bufferView":26,
			"componentType":5126,
			"count":1,
			"max":[
				0
			],
			"min":[
				0
			],
			"type":"SCALAR"
		},
		{
			"bufferView":27,
			"componentType":5126,
			"count":1,
			"type":"VEC3"
		}
	],
	"bufferViews":[
		{
			"buffer":0,
			"byteLength":68544,
			"byteOffset":0,
			"target":34962
		},
		{
			"buffer":0,
			"byteLength":45696,
			"byteOffset":68544,
			"target":34962
		},
		{
			"buffer":0,
			"byteLength":68544,
			"byteOffset":114240,
			"target":34962
		},
		{
			"buffer":0,
			"byteLength":25356,
			"byteOffset":182784,
			"target":34963
		},
		{
			"buffer":0,
			"byteLength":120,
			"byteOffset":208140,
			"target":34962
		},
		{
			"buffer":0,
			"byteLength":80,
			"byteOffset":208260,
			"target":34962
		},
		{
			"buffer":0,
			"byteLength":120,
			"byteOffset":208340,
			"target":34962
		},
		{
			"buffer":0,
			"byteLength":48,
			"byteOffset":208460,
			"target":34963
		},
		{
			"buffer":0,
			"byteLength":48,
			"byteOffset":208508,
			"target":34962
		},
		{
			"buffer":0,
			"byteLength":32,
			"byteOffset":208556,
			"target":34962
		},
		{
			"buffer":0,
			"byteLength":48,
			"byteOffset":208588,
			"target":34962
		},
		{
			"buffer":0,
			"byteLength":12,
			"byteOffset":208636,
			"target":34963
		},
		{
			"buffer":0,
			"byteLength":3360,
			"byteOffset":208648,
			"target":34962
		},
		{
			"buffer":0,
			"byteLength":2240,
			"byteOffset":212008,
			"target":34962
		},
		{
			"buffer":0,
			"byteLength":3360,
			"byteOffset":214248,
			"target":34962
		},
		{
			"buffer":0,
			"byteLength":840,
			"byteOffset":217608,
			"target":34963
		},
		{
			"buffer":0,
			"byteLength":2832,
			"byteOffset":218448,
			"target":34962
		},
		{
			"buffer":0,
			"byteLength":1888,
			"byteOffset":221280,
			"target":34962
		},
		{
			"buffer":0,
			"byteLength":2832,
			"byteOffset":223168,
			"target":34962
		},
		{
			"buffer":0,
			"byteLength":732,
			"byteOffset":226000,
			"target":34963
		},
		{
			"buffer":0,
			"byteLength":48,
			"byteOffset":226732,
			"target":34962
		},
		{
			"buffer":0,
			"byteLength":32,
			"byteOffset":226780,
			"target":34962
		},
		{
			"buffer":0,
			"byteLength":48,
			"byteOffset":226812,
			"target":34962
		},
		{
			"buffer":0,
			"byteLength":12,
			"byteOffset":226860,
			"target":34963
		},
		{
			"buffer":0,
			"byteLength":404,
			"byteOffset":226872
		},
		{
			"buffer":0,
			"byteLength":1616,
			"byteOffset":227276
		},
		{
			"buffer":0,
			"byteLength":4,
			"byteOffset":228892
		},
		{
			"buffer":0,
			"byteLength":12,
			"byteOffset":228896
		}
	],
	"buffers":[
		{
			"byteLength":228908,
			"uri":"data:application/octet-stream;base64,"
		}
	]
}
